<?xml version="1.0" standalone="no"?><!DOCTYPE svg PUBLIC "-//W3C//DTD SVG 1.1//EN" "http://www.w3.org/Graphics/SVG/1.1/DTD/svg11.dtd"><svg t="1528354963371" class="icon" style="" viewBox="0 0 1024 1024" version="1.1" xmlns="http://www.w3.org/2000/svg" p-id="2816" xmlns:xlink="http://www.w3.org/1999/xlink" width="200" height="200"><defs><style type="text/css"></style></defs><path d="M952.32 122.88v573.44H579.584c-26.624-22.528-63.488-30.72-98.304-22.528l-55.296 12.288c-16.384-36.864-53.248-59.392-94.208-53.248l-98.304 14.336V122.88h718.848z" fill="#4DA9FF" p-id="2817"></path><path d="M968.704 81.92h-757.76c-10.24 0-20.48 10.24-20.48 20.48v552.96c-20.48 6.144-40.96 14.336-59.392 26.624l-77.824 47.104c-18.432 10.24-24.576 32.768-14.336 53.248L122.88 921.6c6.144 12.288 20.48 20.48 34.816 20.48h104.448c40.96 0 81.92-12.288 118.784-32.768l210.944-126.976c16.384-10.24 22.528-28.672 18.432-45.056h358.4c10.24 0 20.48-10.24 20.48-20.48V102.4c0-10.24-8.192-20.48-20.48-20.48zM360.448 872.448c-28.672 18.432-63.488 26.624-96.256 26.624H159.744l-81.92-137.216L153.6 716.8c12.288-8.192 24.576-14.336 38.912-18.432s26.624-8.192 40.96-10.24h4.096l102.4-14.336c20.48-2.048 38.912 8.192 49.152 24.576 0 0 0 2.048 2.048 2.048L272.384 737.28l-30.72 10.24c-10.24 4.096-16.384 16.384-12.288 26.624 4.096 8.192 10.24 14.336 20.48 14.336 2.048 0 4.096 0 6.144-2.048l145.408-49.152 20.48-6.144c2.048 0 4.096-2.048 6.144-2.048l63.488-14.336c26.624-6.144 55.296 4.096 73.728 24.576 2.048 2.048 4.096 6.144 6.144 10.24l-210.944 122.88zM948.224 696.32h-368.64c-26.624-22.528-63.488-30.72-98.304-22.528l-55.296 12.288c-16.384-36.864-53.248-59.392-94.208-53.248l-98.304 14.336V122.88h716.8l-2.048 573.44z" fill="#1C2754" p-id="2818"></path><path d="M354.304 184.32h471.04c12.288 0 20.48 8.192 20.48 20.48v61.44c0 12.288-8.192 20.48-20.48 20.48h-471.04c-12.288 0-20.48-8.192-20.48-20.48v-61.44c0-10.24 10.24-20.48 20.48-20.48z" fill="#334489" p-id="2819"></path><path d="M354.304 368.64h61.44c12.288 0 20.48 8.192 20.48 20.48s-8.192 20.48-20.48 20.48h-61.44c-12.288 0-20.48-8.192-20.48-20.48 0-10.24 10.24-20.48 20.48-20.48zM559.104 368.64h61.44c12.288 0 20.48 8.192 20.48 20.48s-8.192 20.48-20.48 20.48h-61.44c-12.288 0-20.48-8.192-20.48-20.48 0-10.24 10.24-20.48 20.48-20.48zM354.304 471.04h61.44c12.288 0 20.48 8.192 20.48 20.48s-8.192 20.48-20.48 20.48h-61.44c-12.288 0-20.48-8.192-20.48-20.48 0-10.24 10.24-20.48 20.48-20.48zM559.104 471.04h61.44c12.288 0 20.48 8.192 20.48 20.48s-8.192 20.48-20.48 20.48h-61.44c-12.288 0-20.48-8.192-20.48-20.48 0-10.24 10.24-20.48 20.48-20.48zM354.304 573.44h61.44c12.288 0 20.48 8.192 20.48 20.48s-8.192 20.48-20.48 20.48h-61.44c-12.288 0-20.48-8.192-20.48-20.48 0-10.24 10.24-20.48 20.48-20.48zM559.104 573.44h61.44c12.288 0 20.48 8.192 20.48 20.48s-8.192 20.48-20.48 20.48h-61.44c-12.288 0-20.48-8.192-20.48-20.48 0-10.24 10.24-20.48 20.48-20.48zM763.904 368.64h61.44c12.288 0 20.48 8.192 20.48 20.48s-8.192 20.48-20.48 20.48h-61.44c-12.288 0-20.48-8.192-20.48-20.48 0-10.24 10.24-20.48 20.48-20.48zM763.904 471.04h61.44c12.288 0 20.48 8.192 20.48 20.48s-8.192 20.48-20.48 20.48h-61.44c-12.288 0-20.48-8.192-20.48-20.48 0-10.24 10.24-20.48 20.48-20.48zM763.904 573.44h61.44c12.288 0 20.48 8.192 20.48 20.48s-8.192 20.48-20.48 20.48h-61.44c-12.288 0-20.48-8.192-20.48-20.48 0-10.24 10.24-20.48 20.48-20.48z" fill="#DBECFF" p-id="2820"></path><path d="M573.44 751.616l-215.04 122.88c-28.672 18.432-63.488 26.624-96.256 26.624H157.696l-81.92-137.216L153.6 716.8c12.288-8.192 24.576-14.336 38.912-18.432s26.624-8.192 40.96-10.24h4.096l102.4-14.336c20.48-2.048 43.008 8.192 51.2 26.624L272.384 737.28l-30.72 10.24c-10.24 4.096-16.384 16.384-12.288 26.624 4.096 8.192 10.24 14.336 20.48 14.336 2.048 0 4.096 0 6.144-2.048l145.408-49.152 20.48-6.144c2.048 0 4.096-2.048 6.144-2.048l63.488-14.336c26.624-6.144 55.296 4.096 73.728 24.576 0 2.048 8.192 8.192 8.192 12.288z" fill="#FFD2BF" p-id="2821"></path></svg>